<mxfile host="app.diagrams.net" agent="Mozilla/5.0 (Macintosh; Intel Mac OS X 10_15_7) AppleWebKit/537.36 (KHTML, like Gecko) Chrome/136.0.0.0 Safari/537.36" version="27.0.6">
  <diagram name="Pagina-1" id="7SJwVTwptf4z7kMUKTIB">
    <mxGraphModel dx="1051" dy="716" grid="1" gridSize="10" guides="1" tooltips="1" connect="1" arrows="1" fold="1" page="1" pageScale="1" pageWidth="827" pageHeight="1169" math="0" shadow="0">
      <root>
        <mxCell id="0" />
        <mxCell id="1" parent="0" />
        <mxCell id="tw6_FEPcqnVQEfGkm1tB-1" value="" style="edgeStyle=orthogonalEdgeStyle;rounded=0;orthogonalLoop=1;jettySize=auto;html=1;endArrow=none;startFill=0;" edge="1" parent="1" source="tw6_FEPcqnVQEfGkm1tB-2" target="tw6_FEPcqnVQEfGkm1tB-9">
          <mxGeometry relative="1" as="geometry" />
        </mxCell>
        <mxCell id="tw6_FEPcqnVQEfGkm1tB-2" value="" style="ellipse;whiteSpace=wrap;html=1;aspect=fixed;fillColor=#F2FF3D;" vertex="1" parent="1">
          <mxGeometry x="473" y="752" width="14" height="14" as="geometry" />
        </mxCell>
        <mxCell id="tw6_FEPcqnVQEfGkm1tB-3" value="Id_Encounter&lt;div&gt;&amp;nbsp;+&lt;div&gt;Code_Immunization&lt;br&gt;&lt;/div&gt;&lt;/div&gt;" style="text;html=1;align=center;verticalAlign=middle;resizable=0;points=[];autosize=1;strokeColor=none;fillColor=none;" vertex="1" parent="1">
          <mxGeometry x="415" y="677" width="130" height="60" as="geometry" />
        </mxCell>
        <mxCell id="tw6_FEPcqnVQEfGkm1tB-4" style="edgeStyle=orthogonalEdgeStyle;rounded=0;orthogonalLoop=1;jettySize=auto;html=1;exitX=1;exitY=1;exitDx=0;exitDy=0;entryX=0;entryY=0.5;entryDx=0;entryDy=0;curved=1;endArrow=classic;startFill=0;endFill=1;" edge="1" parent="1" source="tw6_FEPcqnVQEfGkm1tB-9" target="tw6_FEPcqnVQEfGkm1tB-28">
          <mxGeometry relative="1" as="geometry">
            <Array as="points">
              <mxPoint x="685" y="772" />
              <mxPoint x="743" y="772" />
            </Array>
          </mxGeometry>
        </mxCell>
        <mxCell id="tw6_FEPcqnVQEfGkm1tB-5" style="edgeStyle=orthogonalEdgeStyle;rounded=0;orthogonalLoop=1;jettySize=auto;html=1;exitX=0.5;exitY=1;exitDx=0;exitDy=0;entryX=0.5;entryY=0;entryDx=0;entryDy=0;endArrow=none;startFill=0;" edge="1" parent="1" source="tw6_FEPcqnVQEfGkm1tB-9" target="tw6_FEPcqnVQEfGkm1tB-37">
          <mxGeometry relative="1" as="geometry" />
        </mxCell>
        <mxCell id="tw6_FEPcqnVQEfGkm1tB-6" style="edgeStyle=orthogonalEdgeStyle;rounded=0;orthogonalLoop=1;jettySize=auto;html=1;exitX=0;exitY=0;exitDx=0;exitDy=0;entryX=0.5;entryY=1;entryDx=0;entryDy=0;endArrow=none;startFill=0;curved=1;" edge="1" parent="1" source="tw6_FEPcqnVQEfGkm1tB-9" target="tw6_FEPcqnVQEfGkm1tB-39">
          <mxGeometry relative="1" as="geometry">
            <mxPoint x="653" y="632" as="targetPoint" />
          </mxGeometry>
        </mxCell>
        <mxCell id="tw6_FEPcqnVQEfGkm1tB-7" style="edgeStyle=orthogonalEdgeStyle;rounded=0;orthogonalLoop=1;jettySize=auto;html=1;exitX=0.5;exitY=0;exitDx=0;exitDy=0;entryX=0.5;entryY=1;entryDx=0;entryDy=0;curved=1;endArrow=none;startFill=0;" edge="1" parent="1" source="tw6_FEPcqnVQEfGkm1tB-9" target="tw6_FEPcqnVQEfGkm1tB-20">
          <mxGeometry relative="1" as="geometry" />
        </mxCell>
        <mxCell id="tw6_FEPcqnVQEfGkm1tB-8" style="edgeStyle=orthogonalEdgeStyle;rounded=0;orthogonalLoop=1;jettySize=auto;html=1;exitX=1;exitY=0.5;exitDx=0;exitDy=0;entryX=0;entryY=0.5;entryDx=0;entryDy=0;curved=1;endArrow=none;startFill=0;" edge="1" parent="1" source="tw6_FEPcqnVQEfGkm1tB-9" target="tw6_FEPcqnVQEfGkm1tB-121">
          <mxGeometry relative="1" as="geometry">
            <Array as="points">
              <mxPoint x="813" y="759" />
              <mxPoint x="813" y="544" />
              <mxPoint x="913" y="544" />
            </Array>
          </mxGeometry>
        </mxCell>
        <mxCell id="tw6_FEPcqnVQEfGkm1tB-9" value="" style="ellipse;whiteSpace=wrap;html=1;aspect=fixed;fillColor=#FFFFFF;" vertex="1" parent="1">
          <mxGeometry x="673" y="752" width="14" height="14" as="geometry" />
        </mxCell>
        <mxCell id="tw6_FEPcqnVQEfGkm1tB-10" style="rounded=0;orthogonalLoop=1;jettySize=auto;html=1;exitX=0.5;exitY=0;exitDx=0;exitDy=0;entryX=0.5;entryY=1;entryDx=0;entryDy=0;endArrow=none;startFill=0;" edge="1" parent="1" source="tw6_FEPcqnVQEfGkm1tB-11" target="tw6_FEPcqnVQEfGkm1tB-2">
          <mxGeometry relative="1" as="geometry" />
        </mxCell>
        <mxCell id="tw6_FEPcqnVQEfGkm1tB-11" value="" style="ellipse;whiteSpace=wrap;html=1;aspect=fixed;fillColor=#FFFFFF;" vertex="1" parent="1">
          <mxGeometry x="471" y="808" width="16" height="16" as="geometry" />
        </mxCell>
        <mxCell id="tw6_FEPcqnVQEfGkm1tB-12" value="Date" style="text;html=1;align=center;verticalAlign=middle;resizable=0;points=[];autosize=1;strokeColor=none;fillColor=none;" vertex="1" parent="1">
          <mxGeometry x="455" y="816" width="50" height="30" as="geometry" />
        </mxCell>
        <mxCell id="tw6_FEPcqnVQEfGkm1tB-13" style="edgeStyle=orthogonalEdgeStyle;rounded=0;orthogonalLoop=1;jettySize=auto;html=1;exitX=1;exitY=0.5;exitDx=0;exitDy=0;entryX=0;entryY=0.5;entryDx=0;entryDy=0;endArrow=none;startFill=0;" edge="1" parent="1" source="tw6_FEPcqnVQEfGkm1tB-14" target="tw6_FEPcqnVQEfGkm1tB-2">
          <mxGeometry relative="1" as="geometry" />
        </mxCell>
        <mxCell id="tw6_FEPcqnVQEfGkm1tB-14" value="" style="ellipse;whiteSpace=wrap;html=1;aspect=fixed;fillColor=#FFFFFF;" vertex="1" parent="1">
          <mxGeometry x="383" y="752" width="14" height="14" as="geometry" />
        </mxCell>
        <mxCell id="tw6_FEPcqnVQEfGkm1tB-15" value="Code_Immunization" style="text;html=1;align=center;verticalAlign=middle;resizable=0;points=[];autosize=1;strokeColor=none;fillColor=none;" vertex="1" parent="1">
          <mxGeometry x="325" y="766" width="130" height="30" as="geometry" />
        </mxCell>
        <mxCell id="tw6_FEPcqnVQEfGkm1tB-16" style="edgeStyle=orthogonalEdgeStyle;rounded=0;orthogonalLoop=1;jettySize=auto;html=1;entryX=0;entryY=0.5;entryDx=0;entryDy=0;endArrow=none;startFill=0;" edge="1" parent="1" source="tw6_FEPcqnVQEfGkm1tB-17" target="tw6_FEPcqnVQEfGkm1tB-14">
          <mxGeometry relative="1" as="geometry" />
        </mxCell>
        <mxCell id="tw6_FEPcqnVQEfGkm1tB-17" value="" style="ellipse;whiteSpace=wrap;html=1;aspect=fixed;fillColor=#FFFFFF;" vertex="1" parent="1">
          <mxGeometry x="313" y="752" width="14" height="14" as="geometry" />
        </mxCell>
        <mxCell id="tw6_FEPcqnVQEfGkm1tB-18" value="Description" style="text;html=1;align=center;verticalAlign=middle;resizable=0;points=[];autosize=1;strokeColor=none;fillColor=none;" vertex="1" parent="1">
          <mxGeometry x="280" y="722" width="80" height="30" as="geometry" />
        </mxCell>
        <mxCell id="tw6_FEPcqnVQEfGkm1tB-19" value="Id_Encounter" style="text;html=1;align=center;verticalAlign=middle;resizable=0;points=[];autosize=1;strokeColor=none;fillColor=none;" vertex="1" parent="1">
          <mxGeometry x="571" y="730" width="90" height="30" as="geometry" />
        </mxCell>
        <mxCell id="tw6_FEPcqnVQEfGkm1tB-20" value="" style="ellipse;whiteSpace=wrap;html=1;aspect=fixed;fillColor=#FFFFFF;" vertex="1" parent="1">
          <mxGeometry x="741" y="648" width="14" height="14" as="geometry" />
        </mxCell>
        <mxCell id="tw6_FEPcqnVQEfGkm1tB-21" style="edgeStyle=orthogonalEdgeStyle;rounded=0;orthogonalLoop=1;jettySize=auto;html=1;exitX=1;exitY=0.5;exitDx=0;exitDy=0;entryX=0;entryY=0.5;entryDx=0;entryDy=0;endArrow=classic;startFill=0;endFill=1;" edge="1" parent="1" source="tw6_FEPcqnVQEfGkm1tB-28" target="tw6_FEPcqnVQEfGkm1tB-52">
          <mxGeometry relative="1" as="geometry" />
        </mxCell>
        <mxCell id="tw6_FEPcqnVQEfGkm1tB-22" style="edgeStyle=orthogonalEdgeStyle;rounded=0;orthogonalLoop=1;jettySize=auto;html=1;exitX=0.5;exitY=1;exitDx=0;exitDy=0;entryX=0.5;entryY=0;entryDx=0;entryDy=0;curved=1;endArrow=none;startFill=0;" edge="1" parent="1" source="tw6_FEPcqnVQEfGkm1tB-28" target="tw6_FEPcqnVQEfGkm1tB-55">
          <mxGeometry relative="1" as="geometry" />
        </mxCell>
        <mxCell id="tw6_FEPcqnVQEfGkm1tB-23" style="edgeStyle=orthogonalEdgeStyle;rounded=0;orthogonalLoop=1;jettySize=auto;html=1;exitX=0;exitY=0;exitDx=0;exitDy=0;entryX=1;entryY=1;entryDx=0;entryDy=0;strokeColor=default;curved=1;endArrow=none;startFill=0;" edge="1" parent="1" source="tw6_FEPcqnVQEfGkm1tB-28" target="tw6_FEPcqnVQEfGkm1tB-53">
          <mxGeometry relative="1" as="geometry" />
        </mxCell>
        <mxCell id="tw6_FEPcqnVQEfGkm1tB-24" style="edgeStyle=orthogonalEdgeStyle;rounded=0;orthogonalLoop=1;jettySize=auto;html=1;exitX=0.5;exitY=0;exitDx=0;exitDy=0;entryX=0.5;entryY=1;entryDx=0;entryDy=0;curved=1;endArrow=none;startFill=0;" edge="1" parent="1" source="tw6_FEPcqnVQEfGkm1tB-28" target="tw6_FEPcqnVQEfGkm1tB-63">
          <mxGeometry relative="1" as="geometry" />
        </mxCell>
        <mxCell id="tw6_FEPcqnVQEfGkm1tB-25" style="edgeStyle=orthogonalEdgeStyle;rounded=0;orthogonalLoop=1;jettySize=auto;html=1;exitX=1;exitY=0;exitDx=0;exitDy=0;entryX=0.5;entryY=1;entryDx=0;entryDy=0;curved=1;endArrow=none;startFill=0;" edge="1" parent="1" source="tw6_FEPcqnVQEfGkm1tB-28" target="tw6_FEPcqnVQEfGkm1tB-29">
          <mxGeometry relative="1" as="geometry" />
        </mxCell>
        <mxCell id="tw6_FEPcqnVQEfGkm1tB-26" style="edgeStyle=orthogonalEdgeStyle;rounded=0;orthogonalLoop=1;jettySize=auto;html=1;exitX=0.933;exitY=0.302;exitDx=0;exitDy=0;entryX=0.5;entryY=1;entryDx=0;entryDy=0;curved=1;endArrow=none;startFill=0;exitPerimeter=0;" edge="1" parent="1" source="tw6_FEPcqnVQEfGkm1tB-28" target="tw6_FEPcqnVQEfGkm1tB-66">
          <mxGeometry relative="1" as="geometry" />
        </mxCell>
        <mxCell id="tw6_FEPcqnVQEfGkm1tB-27" style="edgeStyle=orthogonalEdgeStyle;rounded=0;orthogonalLoop=1;jettySize=auto;html=1;exitX=1.014;exitY=0.588;exitDx=0;exitDy=0;entryX=0;entryY=0.5;entryDx=0;entryDy=0;curved=1;endArrow=none;startFill=0;exitPerimeter=0;" edge="1" parent="1" source="tw6_FEPcqnVQEfGkm1tB-28" target="tw6_FEPcqnVQEfGkm1tB-67">
          <mxGeometry relative="1" as="geometry" />
        </mxCell>
        <mxCell id="tw6_FEPcqnVQEfGkm1tB-28" value="" style="ellipse;whiteSpace=wrap;html=1;aspect=fixed;fillColor=#FFFFFF;" vertex="1" parent="1">
          <mxGeometry x="846" y="766" width="14" height="14" as="geometry" />
        </mxCell>
        <mxCell id="tw6_FEPcqnVQEfGkm1tB-29" value="" style="ellipse;whiteSpace=wrap;html=1;aspect=fixed;fillColor=#FFFFFF;" vertex="1" parent="1">
          <mxGeometry x="883" y="730" width="14" height="14" as="geometry" />
        </mxCell>
        <mxCell id="tw6_FEPcqnVQEfGkm1tB-30" style="edgeStyle=orthogonalEdgeStyle;rounded=0;orthogonalLoop=1;jettySize=auto;html=1;exitX=0;exitY=0;exitDx=0;exitDy=0;entryX=0.5;entryY=0;entryDx=0;entryDy=0;curved=1;endArrow=none;startFill=0;" edge="1" parent="1" source="tw6_FEPcqnVQEfGkm1tB-37" target="tw6_FEPcqnVQEfGkm1tB-90">
          <mxGeometry relative="1" as="geometry" />
        </mxCell>
        <mxCell id="tw6_FEPcqnVQEfGkm1tB-31" style="edgeStyle=orthogonalEdgeStyle;rounded=0;orthogonalLoop=1;jettySize=auto;html=1;exitX=0;exitY=0.5;exitDx=0;exitDy=0;entryX=0.5;entryY=0;entryDx=0;entryDy=0;curved=1;endArrow=none;startFill=0;" edge="1" parent="1" source="tw6_FEPcqnVQEfGkm1tB-37" target="tw6_FEPcqnVQEfGkm1tB-88">
          <mxGeometry relative="1" as="geometry" />
        </mxCell>
        <mxCell id="tw6_FEPcqnVQEfGkm1tB-32" style="edgeStyle=orthogonalEdgeStyle;rounded=0;orthogonalLoop=1;jettySize=auto;html=1;exitX=0;exitY=1;exitDx=0;exitDy=0;entryX=0.5;entryY=0;entryDx=0;entryDy=0;curved=1;endArrow=none;startFill=0;" edge="1" parent="1" source="tw6_FEPcqnVQEfGkm1tB-37" target="tw6_FEPcqnVQEfGkm1tB-89">
          <mxGeometry relative="1" as="geometry" />
        </mxCell>
        <mxCell id="tw6_FEPcqnVQEfGkm1tB-33" style="edgeStyle=orthogonalEdgeStyle;rounded=0;orthogonalLoop=1;jettySize=auto;html=1;exitX=1;exitY=1;exitDx=0;exitDy=0;curved=1;endArrow=none;startFill=0;" edge="1" parent="1" source="tw6_FEPcqnVQEfGkm1tB-37" target="tw6_FEPcqnVQEfGkm1tB-96">
          <mxGeometry relative="1" as="geometry" />
        </mxCell>
        <mxCell id="tw6_FEPcqnVQEfGkm1tB-34" style="edgeStyle=orthogonalEdgeStyle;rounded=0;orthogonalLoop=1;jettySize=auto;html=1;exitX=0.971;exitY=0.342;exitDx=0;exitDy=0;entryX=0;entryY=0.5;entryDx=0;entryDy=0;curved=1;exitPerimeter=0;endArrow=none;startFill=0;" edge="1" parent="1" source="tw6_FEPcqnVQEfGkm1tB-37" target="tw6_FEPcqnVQEfGkm1tB-103">
          <mxGeometry relative="1" as="geometry" />
        </mxCell>
        <mxCell id="tw6_FEPcqnVQEfGkm1tB-35" style="edgeStyle=orthogonalEdgeStyle;rounded=0;orthogonalLoop=1;jettySize=auto;html=1;exitX=1;exitY=0;exitDx=0;exitDy=0;entryX=0;entryY=1;entryDx=0;entryDy=0;curved=1;" edge="1" parent="1" source="tw6_FEPcqnVQEfGkm1tB-37" target="tw6_FEPcqnVQEfGkm1tB-52">
          <mxGeometry relative="1" as="geometry">
            <mxPoint x="1133" y="852" as="targetPoint" />
            <Array as="points">
              <mxPoint x="1003" y="1014" />
              <mxPoint x="1003" y="778" />
            </Array>
          </mxGeometry>
        </mxCell>
        <mxCell id="tw6_FEPcqnVQEfGkm1tB-36" style="edgeStyle=orthogonalEdgeStyle;rounded=0;orthogonalLoop=1;jettySize=auto;html=1;entryX=0;entryY=1;entryDx=0;entryDy=0;curved=1;exitX=0.675;exitY=0.002;exitDx=0;exitDy=0;exitPerimeter=0;" edge="1" parent="1" source="tw6_FEPcqnVQEfGkm1tB-37" target="tw6_FEPcqnVQEfGkm1tB-28">
          <mxGeometry relative="1" as="geometry">
            <Array as="points">
              <mxPoint x="682" y="1002" />
              <mxPoint x="753" y="1002" />
              <mxPoint x="753" y="778" />
            </Array>
          </mxGeometry>
        </mxCell>
        <mxCell id="tw6_FEPcqnVQEfGkm1tB-37" value="" style="ellipse;whiteSpace=wrap;html=1;aspect=fixed;fillColor=#FFFFFF;" vertex="1" parent="1">
          <mxGeometry x="673" y="1012" width="14" height="14" as="geometry" />
        </mxCell>
        <mxCell id="tw6_FEPcqnVQEfGkm1tB-38" style="edgeStyle=orthogonalEdgeStyle;rounded=0;orthogonalLoop=1;jettySize=auto;html=1;exitX=1;exitY=0;exitDx=0;exitDy=0;curved=1;endArrow=none;startFill=0;" edge="1" parent="1" source="tw6_FEPcqnVQEfGkm1tB-39" target="tw6_FEPcqnVQEfGkm1tB-44">
          <mxGeometry relative="1" as="geometry" />
        </mxCell>
        <mxCell id="tw6_FEPcqnVQEfGkm1tB-39" value="" style="ellipse;whiteSpace=wrap;html=1;aspect=fixed;fillColor=#FFFFFF;" vertex="1" parent="1">
          <mxGeometry x="643" y="536" width="14" height="14" as="geometry" />
        </mxCell>
        <mxCell id="tw6_FEPcqnVQEfGkm1tB-40" value="Code_Type_Encounter&lt;div&gt;&lt;br&gt;&lt;/div&gt;" style="text;html=1;align=center;verticalAlign=middle;resizable=0;points=[];autosize=1;strokeColor=none;fillColor=none;" vertex="1" parent="1">
          <mxGeometry x="487" y="523" width="150" height="40" as="geometry" />
        </mxCell>
        <mxCell id="tw6_FEPcqnVQEfGkm1tB-41" style="edgeStyle=orthogonalEdgeStyle;rounded=0;orthogonalLoop=1;jettySize=auto;html=1;exitX=0.5;exitY=1;exitDx=0;exitDy=0;entryX=0;entryY=0;entryDx=0;entryDy=0;curved=1;endArrow=none;startFill=0;" edge="1" parent="1" source="tw6_FEPcqnVQEfGkm1tB-42" target="tw6_FEPcqnVQEfGkm1tB-39">
          <mxGeometry relative="1" as="geometry" />
        </mxCell>
        <mxCell id="tw6_FEPcqnVQEfGkm1tB-42" value="" style="ellipse;whiteSpace=wrap;html=1;aspect=fixed;fillColor=#FFFFFF;" vertex="1" parent="1">
          <mxGeometry x="587" y="456" width="14" height="14" as="geometry" />
        </mxCell>
        <mxCell id="tw6_FEPcqnVQEfGkm1tB-43" value="Description" style="text;html=1;align=center;verticalAlign=middle;resizable=0;points=[];autosize=1;strokeColor=none;fillColor=none;" vertex="1" parent="1">
          <mxGeometry x="507" y="456" width="80" height="30" as="geometry" />
        </mxCell>
        <mxCell id="tw6_FEPcqnVQEfGkm1tB-44" value="" style="ellipse;whiteSpace=wrap;html=1;aspect=fixed;fillColor=#FFFFFF;" vertex="1" parent="1">
          <mxGeometry x="703" y="456" width="14" height="14" as="geometry" />
        </mxCell>
        <mxCell id="tw6_FEPcqnVQEfGkm1tB-45" value="Base_Cost" style="text;html=1;align=center;verticalAlign=middle;resizable=0;points=[];autosize=1;strokeColor=none;fillColor=none;" vertex="1" parent="1">
          <mxGeometry x="713" y="436" width="80" height="30" as="geometry" />
        </mxCell>
        <mxCell id="tw6_FEPcqnVQEfGkm1tB-46" value="Id_Class" style="text;html=1;align=center;verticalAlign=middle;resizable=0;points=[];autosize=1;strokeColor=none;fillColor=none;" vertex="1" parent="1">
          <mxGeometry x="673" y="640" width="70" height="30" as="geometry" />
        </mxCell>
        <mxCell id="tw6_FEPcqnVQEfGkm1tB-47" style="edgeStyle=orthogonalEdgeStyle;rounded=0;orthogonalLoop=1;jettySize=auto;html=1;exitX=0.5;exitY=1;exitDx=0;exitDy=0;entryX=0.5;entryY=0;entryDx=0;entryDy=0;endArrow=none;startFill=0;" edge="1" parent="1" source="tw6_FEPcqnVQEfGkm1tB-48" target="tw6_FEPcqnVQEfGkm1tB-20">
          <mxGeometry relative="1" as="geometry" />
        </mxCell>
        <mxCell id="tw6_FEPcqnVQEfGkm1tB-48" value="" style="ellipse;whiteSpace=wrap;html=1;aspect=fixed;fillColor=#FFFFFF;" vertex="1" parent="1">
          <mxGeometry x="741" y="572" width="14" height="14" as="geometry" />
        </mxCell>
        <mxCell id="tw6_FEPcqnVQEfGkm1tB-49" value="Name" style="text;html=1;align=center;verticalAlign=middle;resizable=0;points=[];autosize=1;strokeColor=none;fillColor=none;" vertex="1" parent="1">
          <mxGeometry x="681" y="542" width="60" height="30" as="geometry" />
        </mxCell>
        <mxCell id="tw6_FEPcqnVQEfGkm1tB-50" value="Id_Organization" style="text;html=1;align=center;verticalAlign=middle;resizable=0;points=[];autosize=1;strokeColor=none;fillColor=none;" vertex="1" parent="1">
          <mxGeometry x="738" y="747" width="110" height="30" as="geometry" />
        </mxCell>
        <mxCell id="tw6_FEPcqnVQEfGkm1tB-51" style="edgeStyle=orthogonalEdgeStyle;rounded=0;orthogonalLoop=1;jettySize=auto;html=1;exitX=1;exitY=0.5;exitDx=0;exitDy=0;entryX=0;entryY=0.5;entryDx=0;entryDy=0;endArrow=none;startFill=0;" edge="1" parent="1" source="tw6_FEPcqnVQEfGkm1tB-52" target="tw6_FEPcqnVQEfGkm1tB-76">
          <mxGeometry relative="1" as="geometry" />
        </mxCell>
        <mxCell id="tw6_FEPcqnVQEfGkm1tB-52" value="" style="ellipse;whiteSpace=wrap;html=1;aspect=fixed;fillColor=#FFFFFF;" vertex="1" parent="1">
          <mxGeometry x="1023" y="766" width="14" height="14" as="geometry" />
        </mxCell>
        <mxCell id="tw6_FEPcqnVQEfGkm1tB-53" value="" style="ellipse;whiteSpace=wrap;html=1;aspect=fixed;fillColor=#FFFFFF;" vertex="1" parent="1">
          <mxGeometry x="823" y="738" width="14" height="14" as="geometry" />
        </mxCell>
        <mxCell id="tw6_FEPcqnVQEfGkm1tB-54" value="" style="ellipse;whiteSpace=wrap;html=1;aspect=fixed;fillColor=#FFFFFF;" vertex="1" parent="1">
          <mxGeometry x="860" y="842" width="14" height="14" as="geometry" />
        </mxCell>
        <mxCell id="tw6_FEPcqnVQEfGkm1tB-55" value="" style="ellipse;whiteSpace=wrap;html=1;aspect=fixed;fillColor=#FFFFFF;" vertex="1" parent="1">
          <mxGeometry x="823" y="842" width="14" height="14" as="geometry" />
        </mxCell>
        <mxCell id="tw6_FEPcqnVQEfGkm1tB-56" value="" style="ellipse;whiteSpace=wrap;html=1;aspect=fixed;fillColor=#FFFFFF;" vertex="1" parent="1">
          <mxGeometry x="923" y="832" width="14" height="14" as="geometry" />
        </mxCell>
        <mxCell id="tw6_FEPcqnVQEfGkm1tB-57" value="Name" style="text;html=1;align=center;verticalAlign=middle;resizable=0;points=[];autosize=1;strokeColor=none;fillColor=none;" vertex="1" parent="1">
          <mxGeometry x="773" y="832" width="60" height="30" as="geometry" />
        </mxCell>
        <mxCell id="tw6_FEPcqnVQEfGkm1tB-58" value="Address" style="text;strokeColor=none;align=center;fillColor=none;html=1;verticalAlign=middle;whiteSpace=wrap;rounded=0;" vertex="1" parent="1">
          <mxGeometry x="837" y="846" width="60" height="30" as="geometry" />
        </mxCell>
        <mxCell id="tw6_FEPcqnVQEfGkm1tB-59" style="edgeStyle=orthogonalEdgeStyle;rounded=0;orthogonalLoop=1;jettySize=auto;html=1;exitX=1;exitY=1;exitDx=0;exitDy=0;entryX=0.5;entryY=0;entryDx=0;entryDy=0;curved=1;endArrow=none;startFill=0;" edge="1" parent="1" source="tw6_FEPcqnVQEfGkm1tB-28" target="tw6_FEPcqnVQEfGkm1tB-54">
          <mxGeometry relative="1" as="geometry">
            <mxPoint x="890" y="780" as="sourcePoint" />
            <mxPoint x="867" y="842" as="targetPoint" />
            <Array as="points">
              <mxPoint x="858" y="780" />
              <mxPoint x="868" y="780" />
              <mxPoint x="868" y="842" />
            </Array>
          </mxGeometry>
        </mxCell>
        <mxCell id="tw6_FEPcqnVQEfGkm1tB-60" style="edgeStyle=orthogonalEdgeStyle;rounded=0;orthogonalLoop=1;jettySize=auto;html=1;exitX=0.934;exitY=0.725;exitDx=0;exitDy=0;curved=1;endArrow=none;startFill=0;exitPerimeter=0;" edge="1" parent="1" source="tw6_FEPcqnVQEfGkm1tB-28" target="tw6_FEPcqnVQEfGkm1tB-56">
          <mxGeometry relative="1" as="geometry">
            <mxPoint x="868" y="788" as="sourcePoint" />
            <mxPoint x="877" y="852" as="targetPoint" />
            <Array as="points">
              <mxPoint x="873" y="776" />
              <mxPoint x="873" y="782" />
              <mxPoint x="883" y="782" />
              <mxPoint x="883" y="839" />
            </Array>
          </mxGeometry>
        </mxCell>
        <mxCell id="tw6_FEPcqnVQEfGkm1tB-61" value="Zip_Code" style="text;html=1;align=center;verticalAlign=middle;resizable=0;points=[];autosize=1;strokeColor=none;fillColor=none;" vertex="1" parent="1">
          <mxGeometry x="883" y="840" width="80" height="30" as="geometry" />
        </mxCell>
        <mxCell id="tw6_FEPcqnVQEfGkm1tB-62" value="Lat" style="text;html=1;align=center;verticalAlign=middle;resizable=0;points=[];autosize=1;strokeColor=none;fillColor=none;" vertex="1" parent="1">
          <mxGeometry x="820" y="717" width="40" height="30" as="geometry" />
        </mxCell>
        <mxCell id="tw6_FEPcqnVQEfGkm1tB-63" value="" style="ellipse;whiteSpace=wrap;html=1;aspect=fixed;fillColor=#FFFFFF;" vertex="1" parent="1">
          <mxGeometry x="859" y="730" width="14" height="14" as="geometry" />
        </mxCell>
        <mxCell id="tw6_FEPcqnVQEfGkm1tB-64" value="Lon" style="text;html=1;align=center;verticalAlign=middle;resizable=0;points=[];autosize=1;strokeColor=none;fillColor=none;" vertex="1" parent="1">
          <mxGeometry x="846" y="708" width="40" height="30" as="geometry" />
        </mxCell>
        <mxCell id="tw6_FEPcqnVQEfGkm1tB-65" value="Phone" style="text;html=1;align=center;verticalAlign=middle;resizable=0;points=[];autosize=1;strokeColor=none;fillColor=none;" vertex="1" parent="1">
          <mxGeometry x="877" y="708" width="60" height="30" as="geometry" />
        </mxCell>
        <mxCell id="tw6_FEPcqnVQEfGkm1tB-66" value="" style="ellipse;whiteSpace=wrap;html=1;aspect=fixed;fillColor=#FFFFFF;" vertex="1" parent="1">
          <mxGeometry x="923" y="732" width="14" height="14" as="geometry" />
        </mxCell>
        <mxCell id="tw6_FEPcqnVQEfGkm1tB-67" value="" style="ellipse;whiteSpace=wrap;html=1;aspect=fixed;fillColor=#FFFFFF;" vertex="1" parent="1">
          <mxGeometry x="923" y="788" width="14" height="14" as="geometry" />
        </mxCell>
        <mxCell id="tw6_FEPcqnVQEfGkm1tB-68" value="Revenue" style="text;html=1;align=center;verticalAlign=middle;resizable=0;points=[];autosize=1;strokeColor=none;fillColor=none;" vertex="1" parent="1">
          <mxGeometry x="923" y="714" width="70" height="30" as="geometry" />
        </mxCell>
        <mxCell id="tw6_FEPcqnVQEfGkm1tB-69" value="Utilization" style="text;html=1;align=center;verticalAlign=middle;resizable=0;points=[];autosize=1;strokeColor=none;fillColor=none;" vertex="1" parent="1">
          <mxGeometry x="893" y="794" width="80" height="30" as="geometry" />
        </mxCell>
        <mxCell id="tw6_FEPcqnVQEfGkm1tB-70" value="Id_City" style="text;html=1;align=center;verticalAlign=middle;resizable=0;points=[];autosize=1;strokeColor=none;fillColor=none;" vertex="1" parent="1">
          <mxGeometry x="1023" y="772" width="60" height="30" as="geometry" />
        </mxCell>
        <mxCell id="tw6_FEPcqnVQEfGkm1tB-71" style="edgeStyle=orthogonalEdgeStyle;rounded=0;orthogonalLoop=1;jettySize=auto;html=1;entryX=0.5;entryY=1;entryDx=0;entryDy=0;endArrow=none;startFill=0;" edge="1" parent="1" source="tw6_FEPcqnVQEfGkm1tB-72" target="tw6_FEPcqnVQEfGkm1tB-52">
          <mxGeometry relative="1" as="geometry" />
        </mxCell>
        <mxCell id="tw6_FEPcqnVQEfGkm1tB-72" value="" style="ellipse;whiteSpace=wrap;html=1;aspect=fixed;fillColor=#FFFFFF;" vertex="1" parent="1">
          <mxGeometry x="1023" y="802" width="14" height="14" as="geometry" />
        </mxCell>
        <mxCell id="tw6_FEPcqnVQEfGkm1tB-73" value="Name" style="text;html=1;align=center;verticalAlign=middle;resizable=0;points=[];autosize=1;strokeColor=none;fillColor=none;" vertex="1" parent="1">
          <mxGeometry x="1000" y="810" width="60" height="30" as="geometry" />
        </mxCell>
        <mxCell id="tw6_FEPcqnVQEfGkm1tB-74" style="edgeStyle=orthogonalEdgeStyle;rounded=0;orthogonalLoop=1;jettySize=auto;html=1;exitX=0.5;exitY=1;exitDx=0;exitDy=0;entryX=0.5;entryY=0;entryDx=0;entryDy=0;endArrow=none;startFill=0;" edge="1" parent="1" source="tw6_FEPcqnVQEfGkm1tB-76" target="tw6_FEPcqnVQEfGkm1tB-78">
          <mxGeometry relative="1" as="geometry" />
        </mxCell>
        <mxCell id="tw6_FEPcqnVQEfGkm1tB-75" style="edgeStyle=orthogonalEdgeStyle;rounded=0;orthogonalLoop=1;jettySize=auto;html=1;exitX=1;exitY=0.5;exitDx=0;exitDy=0;entryX=0;entryY=0.5;entryDx=0;entryDy=0;endArrow=none;startFill=0;" edge="1" parent="1" source="tw6_FEPcqnVQEfGkm1tB-76" target="tw6_FEPcqnVQEfGkm1tB-81">
          <mxGeometry relative="1" as="geometry" />
        </mxCell>
        <mxCell id="tw6_FEPcqnVQEfGkm1tB-76" value="" style="ellipse;whiteSpace=wrap;html=1;aspect=fixed;fillColor=#FFFFFF;" vertex="1" parent="1">
          <mxGeometry x="1103" y="766" width="14" height="14" as="geometry" />
        </mxCell>
        <mxCell id="tw6_FEPcqnVQEfGkm1tB-77" value="Id_County" style="text;html=1;align=center;verticalAlign=middle;resizable=0;points=[];autosize=1;strokeColor=none;fillColor=none;" vertex="1" parent="1">
          <mxGeometry x="1070" y="738" width="80" height="30" as="geometry" />
        </mxCell>
        <mxCell id="tw6_FEPcqnVQEfGkm1tB-78" value="" style="ellipse;whiteSpace=wrap;html=1;aspect=fixed;fillColor=#FFFFFF;" vertex="1" parent="1">
          <mxGeometry x="1103" y="802" width="14" height="14" as="geometry" />
        </mxCell>
        <mxCell id="tw6_FEPcqnVQEfGkm1tB-79" value="Name" style="text;html=1;align=center;verticalAlign=middle;resizable=0;points=[];autosize=1;strokeColor=none;fillColor=none;" vertex="1" parent="1">
          <mxGeometry x="1080" y="812" width="60" height="30" as="geometry" />
        </mxCell>
        <mxCell id="tw6_FEPcqnVQEfGkm1tB-80" style="edgeStyle=orthogonalEdgeStyle;rounded=0;orthogonalLoop=1;jettySize=auto;html=1;exitX=0.5;exitY=1;exitDx=0;exitDy=0;entryX=0.5;entryY=0;entryDx=0;entryDy=0;endArrow=none;startFill=0;" edge="1" parent="1" source="tw6_FEPcqnVQEfGkm1tB-81" target="tw6_FEPcqnVQEfGkm1tB-83">
          <mxGeometry relative="1" as="geometry" />
        </mxCell>
        <mxCell id="tw6_FEPcqnVQEfGkm1tB-81" value="" style="ellipse;whiteSpace=wrap;html=1;aspect=fixed;fillColor=#FFFFFF;" vertex="1" parent="1">
          <mxGeometry x="1173" y="766" width="14" height="14" as="geometry" />
        </mxCell>
        <mxCell id="tw6_FEPcqnVQEfGkm1tB-82" value="Id_State" style="text;html=1;align=center;verticalAlign=middle;resizable=0;points=[];autosize=1;strokeColor=none;fillColor=none;" vertex="1" parent="1">
          <mxGeometry x="1145" y="738" width="70" height="30" as="geometry" />
        </mxCell>
        <mxCell id="tw6_FEPcqnVQEfGkm1tB-83" value="" style="ellipse;whiteSpace=wrap;html=1;aspect=fixed;fillColor=#FFFFFF;" vertex="1" parent="1">
          <mxGeometry x="1173" y="802" width="14" height="14" as="geometry" />
        </mxCell>
        <mxCell id="tw6_FEPcqnVQEfGkm1tB-84" value="Name" style="text;html=1;align=center;verticalAlign=middle;resizable=0;points=[];autosize=1;strokeColor=none;fillColor=none;" vertex="1" parent="1">
          <mxGeometry x="1150" y="810" width="60" height="30" as="geometry" />
        </mxCell>
        <mxCell id="tw6_FEPcqnVQEfGkm1tB-85" value="Id_Provider" style="text;html=1;align=center;verticalAlign=middle;resizable=0;points=[];autosize=1;strokeColor=none;fillColor=none;" vertex="1" parent="1">
          <mxGeometry x="597" y="982" width="80" height="30" as="geometry" />
        </mxCell>
        <mxCell id="tw6_FEPcqnVQEfGkm1tB-86" style="edgeStyle=orthogonalEdgeStyle;rounded=0;orthogonalLoop=1;jettySize=auto;html=1;exitX=0.5;exitY=0;exitDx=0;exitDy=0;entryX=0.5;entryY=1;entryDx=0;entryDy=0;curved=1;endArrow=none;startFill=0;" edge="1" parent="1" source="tw6_FEPcqnVQEfGkm1tB-87" target="tw6_FEPcqnVQEfGkm1tB-37">
          <mxGeometry relative="1" as="geometry" />
        </mxCell>
        <mxCell id="tw6_FEPcqnVQEfGkm1tB-87" value="" style="ellipse;whiteSpace=wrap;html=1;aspect=fixed;fillColor=#FFFFFF;" vertex="1" parent="1">
          <mxGeometry x="640" y="1078" width="14" height="14" as="geometry" />
        </mxCell>
        <mxCell id="tw6_FEPcqnVQEfGkm1tB-88" value="" style="ellipse;whiteSpace=wrap;html=1;aspect=fixed;fillColor=#FFFFFF;" vertex="1" parent="1">
          <mxGeometry x="583" y="1064" width="14" height="14" as="geometry" />
        </mxCell>
        <mxCell id="tw6_FEPcqnVQEfGkm1tB-89" value="" style="ellipse;whiteSpace=wrap;html=1;aspect=fixed;fillColor=#FFFFFF;" vertex="1" parent="1">
          <mxGeometry x="609" y="1078" width="14" height="14" as="geometry" />
        </mxCell>
        <mxCell id="tw6_FEPcqnVQEfGkm1tB-90" value="" style="ellipse;whiteSpace=wrap;html=1;aspect=fixed;fillColor=#FFFFFF;" vertex="1" parent="1">
          <mxGeometry x="567" y="1042" width="14" height="14" as="geometry" />
        </mxCell>
        <mxCell id="tw6_FEPcqnVQEfGkm1tB-91" value="First_Name" style="text;html=1;align=center;verticalAlign=middle;resizable=0;points=[];autosize=1;strokeColor=none;fillColor=none;" vertex="1" parent="1">
          <mxGeometry x="487" y="1034" width="90" height="30" as="geometry" />
        </mxCell>
        <mxCell id="tw6_FEPcqnVQEfGkm1tB-92" value="Last_Name" style="text;html=1;align=center;verticalAlign=middle;resizable=0;points=[];autosize=1;strokeColor=none;fillColor=none;" vertex="1" parent="1">
          <mxGeometry x="507" y="1056" width="80" height="30" as="geometry" />
        </mxCell>
        <mxCell id="tw6_FEPcqnVQEfGkm1tB-93" value="Gender" style="text;html=1;align=center;verticalAlign=middle;resizable=0;points=[];autosize=1;strokeColor=none;fillColor=none;" vertex="1" parent="1">
          <mxGeometry x="567" y="1086" width="60" height="30" as="geometry" />
        </mxCell>
        <mxCell id="tw6_FEPcqnVQEfGkm1tB-94" value="Address" style="text;html=1;align=center;verticalAlign=middle;resizable=0;points=[];autosize=1;strokeColor=none;fillColor=none;" vertex="1" parent="1">
          <mxGeometry x="618" y="1090" width="70" height="30" as="geometry" />
        </mxCell>
        <mxCell id="tw6_FEPcqnVQEfGkm1tB-95" value="Zip_Code" style="text;html=1;align=center;verticalAlign=middle;resizable=0;points=[];autosize=1;strokeColor=none;fillColor=none;" vertex="1" parent="1">
          <mxGeometry x="684" y="1078" width="80" height="30" as="geometry" />
        </mxCell>
        <mxCell id="tw6_FEPcqnVQEfGkm1tB-96" value="" style="ellipse;whiteSpace=wrap;html=1;aspect=fixed;fillColor=#FFFFFF;" vertex="1" parent="1">
          <mxGeometry x="703" y="1072" width="14" height="14" as="geometry" />
        </mxCell>
        <mxCell id="tw6_FEPcqnVQEfGkm1tB-97" value="Lon" style="text;html=1;align=center;verticalAlign=middle;resizable=0;points=[];autosize=1;strokeColor=none;fillColor=none;" vertex="1" parent="1">
          <mxGeometry x="778" y="1042" width="40" height="30" as="geometry" />
        </mxCell>
        <mxCell id="tw6_FEPcqnVQEfGkm1tB-98" value="Lat" style="text;html=1;align=center;verticalAlign=middle;resizable=0;points=[];autosize=1;strokeColor=none;fillColor=none;" vertex="1" parent="1">
          <mxGeometry x="769" y="1064" width="40" height="30" as="geometry" />
        </mxCell>
        <mxCell id="tw6_FEPcqnVQEfGkm1tB-99" value="" style="ellipse;whiteSpace=wrap;html=1;aspect=fixed;fillColor=#FFFFFF;" vertex="1" parent="1">
          <mxGeometry x="764" y="1072" width="14" height="14" as="geometry" />
        </mxCell>
        <mxCell id="tw6_FEPcqnVQEfGkm1tB-100" value="" style="ellipse;whiteSpace=wrap;html=1;aspect=fixed;fillColor=#FFFFFF;" vertex="1" parent="1">
          <mxGeometry x="769" y="1050" width="14" height="14" as="geometry" />
        </mxCell>
        <mxCell id="tw6_FEPcqnVQEfGkm1tB-101" style="edgeStyle=orthogonalEdgeStyle;rounded=0;orthogonalLoop=1;jettySize=auto;html=1;exitX=1;exitY=0.5;exitDx=0;exitDy=0;entryX=0;entryY=0.5;entryDx=0;entryDy=0;endArrow=none;startFill=0;curved=1;" edge="1" parent="1" source="tw6_FEPcqnVQEfGkm1tB-37" target="tw6_FEPcqnVQEfGkm1tB-100">
          <mxGeometry relative="1" as="geometry" />
        </mxCell>
        <mxCell id="tw6_FEPcqnVQEfGkm1tB-102" style="edgeStyle=orthogonalEdgeStyle;rounded=0;orthogonalLoop=1;jettySize=auto;html=1;exitX=0;exitY=0;exitDx=0;exitDy=0;entryX=0.981;entryY=0.726;entryDx=0;entryDy=0;entryPerimeter=0;endArrow=none;startFill=0;curved=1;" edge="1" parent="1" source="tw6_FEPcqnVQEfGkm1tB-99" target="tw6_FEPcqnVQEfGkm1tB-37">
          <mxGeometry relative="1" as="geometry" />
        </mxCell>
        <mxCell id="tw6_FEPcqnVQEfGkm1tB-103" value="" style="ellipse;whiteSpace=wrap;html=1;aspect=fixed;fillColor=#FFFFFF;" vertex="1" parent="1">
          <mxGeometry x="769" y="1026" width="14" height="14" as="geometry" />
        </mxCell>
        <mxCell id="tw6_FEPcqnVQEfGkm1tB-104" value="Utilization" style="text;html=1;align=center;verticalAlign=middle;resizable=0;points=[];autosize=1;strokeColor=none;fillColor=none;" vertex="1" parent="1">
          <mxGeometry x="773" y="1018" width="80" height="30" as="geometry" />
        </mxCell>
        <mxCell id="tw6_FEPcqnVQEfGkm1tB-105" style="edgeStyle=orthogonalEdgeStyle;rounded=0;orthogonalLoop=1;jettySize=auto;html=1;exitX=0.924;exitY=0.747;exitDx=0;exitDy=0;entryX=0.5;entryY=0;entryDx=0;entryDy=0;curved=1;exitPerimeter=0;" edge="1" parent="1" source="tw6_FEPcqnVQEfGkm1tB-121" target="tw6_FEPcqnVQEfGkm1tB-52">
          <mxGeometry relative="1" as="geometry" />
        </mxCell>
        <mxCell id="tw6_FEPcqnVQEfGkm1tB-106" style="edgeStyle=orthogonalEdgeStyle;rounded=0;orthogonalLoop=1;jettySize=auto;html=1;exitX=0.355;exitY=0.017;exitDx=0;exitDy=0;entryX=0.5;entryY=1;entryDx=0;entryDy=0;curved=1;endArrow=none;startFill=0;exitPerimeter=0;" edge="1" parent="1" source="tw6_FEPcqnVQEfGkm1tB-121" target="tw6_FEPcqnVQEfGkm1tB-126">
          <mxGeometry relative="1" as="geometry" />
        </mxCell>
        <mxCell id="tw6_FEPcqnVQEfGkm1tB-107" style="edgeStyle=orthogonalEdgeStyle;rounded=0;orthogonalLoop=1;jettySize=auto;html=1;exitX=0.5;exitY=0;exitDx=0;exitDy=0;entryX=0.5;entryY=1;entryDx=0;entryDy=0;curved=1;endArrow=none;startFill=0;" edge="1" parent="1" source="tw6_FEPcqnVQEfGkm1tB-121" target="tw6_FEPcqnVQEfGkm1tB-124">
          <mxGeometry relative="1" as="geometry" />
        </mxCell>
        <mxCell id="tw6_FEPcqnVQEfGkm1tB-108" style="edgeStyle=orthogonalEdgeStyle;rounded=0;orthogonalLoop=1;jettySize=auto;html=1;exitX=0.673;exitY=0.055;exitDx=0;exitDy=0;entryX=0.5;entryY=1;entryDx=0;entryDy=0;curved=1;exitPerimeter=0;endArrow=none;startFill=0;" edge="1" parent="1" source="tw6_FEPcqnVQEfGkm1tB-121" target="tw6_FEPcqnVQEfGkm1tB-125">
          <mxGeometry relative="1" as="geometry">
            <mxPoint x="983" y="322" as="targetPoint" />
          </mxGeometry>
        </mxCell>
        <mxCell id="tw6_FEPcqnVQEfGkm1tB-109" style="edgeStyle=orthogonalEdgeStyle;rounded=0;orthogonalLoop=1;jettySize=auto;html=1;exitX=0.651;exitY=0.036;exitDx=0;exitDy=0;entryX=0.5;entryY=1;entryDx=0;entryDy=0;curved=1;exitPerimeter=0;endArrow=none;startFill=0;" edge="1" parent="1" source="tw6_FEPcqnVQEfGkm1tB-121" target="tw6_FEPcqnVQEfGkm1tB-123">
          <mxGeometry relative="1" as="geometry">
            <mxPoint x="1063" y="272" as="targetPoint" />
            <Array as="points">
              <mxPoint x="973" y="532" />
              <mxPoint x="973" y="372" />
              <mxPoint x="1063" y="372" />
              <mxPoint x="1063" y="212" />
            </Array>
          </mxGeometry>
        </mxCell>
        <mxCell id="tw6_FEPcqnVQEfGkm1tB-110" style="edgeStyle=orthogonalEdgeStyle;rounded=0;orthogonalLoop=1;jettySize=auto;html=1;exitX=0.978;exitY=0.364;exitDx=0;exitDy=0;entryX=0.5;entryY=1;entryDx=0;entryDy=0;exitPerimeter=0;curved=1;endArrow=none;startFill=0;" edge="1" parent="1" source="tw6_FEPcqnVQEfGkm1tB-121" target="tw6_FEPcqnVQEfGkm1tB-149">
          <mxGeometry relative="1" as="geometry">
            <mxPoint x="1163.655737704918" y="538.9508196721312" as="targetPoint" />
            <Array as="points">
              <mxPoint x="1160" y="537" />
            </Array>
          </mxGeometry>
        </mxCell>
        <mxCell id="tw6_FEPcqnVQEfGkm1tB-111" style="edgeStyle=orthogonalEdgeStyle;rounded=0;orthogonalLoop=1;jettySize=auto;html=1;exitX=1;exitY=0.5;exitDx=0;exitDy=0;entryX=0;entryY=0.5;entryDx=0;entryDy=0;curved=1;endArrow=none;startFill=0;" edge="1" parent="1" source="tw6_FEPcqnVQEfGkm1tB-121" target="tw6_FEPcqnVQEfGkm1tB-150">
          <mxGeometry relative="1" as="geometry">
            <Array as="points">
              <mxPoint x="1143" y="539" />
              <mxPoint x="1143" y="479" />
            </Array>
          </mxGeometry>
        </mxCell>
        <mxCell id="tw6_FEPcqnVQEfGkm1tB-112" style="edgeStyle=orthogonalEdgeStyle;rounded=0;orthogonalLoop=1;jettySize=auto;html=1;exitX=1;exitY=0.5;exitDx=0;exitDy=0;entryX=0;entryY=0.5;entryDx=0;entryDy=0;curved=1;endArrow=none;startFill=0;" edge="1" parent="1" source="tw6_FEPcqnVQEfGkm1tB-121" target="tw6_FEPcqnVQEfGkm1tB-151">
          <mxGeometry relative="1" as="geometry">
            <Array as="points">
              <mxPoint x="1123" y="539" />
              <mxPoint x="1123" y="525" />
            </Array>
          </mxGeometry>
        </mxCell>
        <mxCell id="tw6_FEPcqnVQEfGkm1tB-113" style="edgeStyle=orthogonalEdgeStyle;rounded=0;orthogonalLoop=1;jettySize=auto;html=1;exitX=0.976;exitY=0.669;exitDx=0;exitDy=0;entryX=0;entryY=0.5;entryDx=0;entryDy=0;curved=1;exitPerimeter=0;endArrow=none;startFill=0;" edge="1" parent="1" source="tw6_FEPcqnVQEfGkm1tB-121" target="tw6_FEPcqnVQEfGkm1tB-152">
          <mxGeometry relative="1" as="geometry" />
        </mxCell>
        <mxCell id="tw6_FEPcqnVQEfGkm1tB-114" style="edgeStyle=orthogonalEdgeStyle;rounded=0;orthogonalLoop=1;jettySize=auto;html=1;exitX=1.013;exitY=0.249;exitDx=0;exitDy=0;entryX=0.5;entryY=0;entryDx=0;entryDy=0;curved=1;endArrow=none;startFill=0;exitPerimeter=0;" edge="1" parent="1" source="tw6_FEPcqnVQEfGkm1tB-122" target="tw6_FEPcqnVQEfGkm1tB-160">
          <mxGeometry relative="1" as="geometry">
            <Array as="points">
              <mxPoint x="920" y="546" />
              <mxPoint x="920" y="579" />
              <mxPoint x="893" y="579" />
            </Array>
          </mxGeometry>
        </mxCell>
        <mxCell id="tw6_FEPcqnVQEfGkm1tB-115" style="edgeStyle=orthogonalEdgeStyle;rounded=0;orthogonalLoop=1;jettySize=auto;html=1;exitX=0;exitY=1;exitDx=0;exitDy=0;entryX=0.5;entryY=0;entryDx=0;entryDy=0;curved=1;endArrow=none;startFill=0;" edge="1" parent="1" source="tw6_FEPcqnVQEfGkm1tB-121" target="tw6_FEPcqnVQEfGkm1tB-159">
          <mxGeometry relative="1" as="geometry">
            <Array as="points">
              <mxPoint x="915" y="562" />
              <mxPoint x="873" y="562" />
            </Array>
          </mxGeometry>
        </mxCell>
        <mxCell id="tw6_FEPcqnVQEfGkm1tB-116" style="edgeStyle=orthogonalEdgeStyle;rounded=0;orthogonalLoop=1;jettySize=auto;html=1;exitX=0.7;exitY=0.961;exitDx=0;exitDy=0;entryX=0.5;entryY=0;entryDx=0;entryDy=0;exitPerimeter=0;curved=1;endArrow=none;startFill=0;" edge="1" parent="1" source="tw6_FEPcqnVQEfGkm1tB-121" target="tw6_FEPcqnVQEfGkm1tB-162">
          <mxGeometry relative="1" as="geometry">
            <Array as="points">
              <mxPoint x="923" y="579" />
              <mxPoint x="930" y="579" />
            </Array>
          </mxGeometry>
        </mxCell>
        <mxCell id="tw6_FEPcqnVQEfGkm1tB-117" style="edgeStyle=orthogonalEdgeStyle;rounded=0;orthogonalLoop=1;jettySize=auto;html=1;exitX=0.797;exitY=0.928;exitDx=0;exitDy=0;entryX=0.5;entryY=0;entryDx=0;entryDy=0;curved=1;endArrow=none;startFill=0;exitPerimeter=0;" edge="1" parent="1">
          <mxGeometry relative="1" as="geometry">
            <mxPoint x="922.998" y="544.992" as="sourcePoint" />
            <mxPoint x="952.84" y="655.9999999999999" as="targetPoint" />
          </mxGeometry>
        </mxCell>
        <mxCell id="tw6_FEPcqnVQEfGkm1tB-118" style="edgeStyle=orthogonalEdgeStyle;rounded=0;orthogonalLoop=1;jettySize=auto;html=1;exitX=1;exitY=1;exitDx=0;exitDy=0;entryX=0.5;entryY=0;entryDx=0;entryDy=0;curved=1;endArrow=none;startFill=0;" edge="1" parent="1" source="tw6_FEPcqnVQEfGkm1tB-121" target="tw6_FEPcqnVQEfGkm1tB-164">
          <mxGeometry relative="1" as="geometry" />
        </mxCell>
        <mxCell id="tw6_FEPcqnVQEfGkm1tB-119" style="edgeStyle=orthogonalEdgeStyle;rounded=0;orthogonalLoop=1;jettySize=auto;html=1;exitX=1;exitY=0.5;exitDx=0;exitDy=0;entryX=0;entryY=0.5;entryDx=0;entryDy=0;curved=1;endArrow=none;startFill=0;" edge="1" parent="1" source="tw6_FEPcqnVQEfGkm1tB-121" target="tw6_FEPcqnVQEfGkm1tB-168">
          <mxGeometry relative="1" as="geometry" />
        </mxCell>
        <mxCell id="tw6_FEPcqnVQEfGkm1tB-120" style="edgeStyle=orthogonalEdgeStyle;rounded=0;orthogonalLoop=1;jettySize=auto;html=1;exitX=1;exitY=0.5;exitDx=0;exitDy=0;entryX=0;entryY=0.5;entryDx=0;entryDy=0;curved=1;endArrow=none;startFill=0;" edge="1" parent="1" source="tw6_FEPcqnVQEfGkm1tB-121" target="tw6_FEPcqnVQEfGkm1tB-171">
          <mxGeometry relative="1" as="geometry">
            <mxPoint x="1063" y="642" as="targetPoint" />
          </mxGeometry>
        </mxCell>
        <mxCell id="tw6_FEPcqnVQEfGkm1tB-121" value="" style="ellipse;whiteSpace=wrap;html=1;aspect=fixed;fillColor=#FFFFFF;" vertex="1" parent="1">
          <mxGeometry x="913" y="532" width="14" height="14" as="geometry" />
        </mxCell>
        <mxCell id="tw6_FEPcqnVQEfGkm1tB-122" value="Id_Patient" style="text;html=1;align=center;verticalAlign=middle;resizable=0;points=[];autosize=1;strokeColor=none;fillColor=none;" vertex="1" parent="1">
          <mxGeometry x="837" y="538" width="80" height="30" as="geometry" />
        </mxCell>
        <mxCell id="tw6_FEPcqnVQEfGkm1tB-123" value="" style="ellipse;whiteSpace=wrap;html=1;aspect=fixed;fillColor=#FFFFFF;" vertex="1" parent="1">
          <mxGeometry x="1046" y="198" width="14" height="14" as="geometry" />
        </mxCell>
        <mxCell id="tw6_FEPcqnVQEfGkm1tB-124" value="" style="ellipse;whiteSpace=wrap;html=1;aspect=fixed;fillColor=#FFFFFF;" vertex="1" parent="1">
          <mxGeometry x="923" y="302" width="14" height="14" as="geometry" />
        </mxCell>
        <mxCell id="tw6_FEPcqnVQEfGkm1tB-125" value="" style="ellipse;whiteSpace=wrap;html=1;aspect=fixed;fillColor=#FFFFFF;" vertex="1" parent="1">
          <mxGeometry x="979" y="302" width="14" height="14" as="geometry" />
        </mxCell>
        <mxCell id="tw6_FEPcqnVQEfGkm1tB-126" value="" style="ellipse;whiteSpace=wrap;html=1;aspect=fixed;fillColor=#FFFFFF;" vertex="1" parent="1">
          <mxGeometry x="883" y="302" width="14" height="14" as="geometry" />
        </mxCell>
        <mxCell id="tw6_FEPcqnVQEfGkm1tB-127" value="Last_Name" style="text;html=1;align=center;verticalAlign=middle;resizable=0;points=[];autosize=1;strokeColor=none;fillColor=none;" vertex="1" parent="1">
          <mxGeometry x="827" y="272" width="80" height="30" as="geometry" />
        </mxCell>
        <mxCell id="tw6_FEPcqnVQEfGkm1tB-128" value="Gender" style="text;html=1;align=center;verticalAlign=middle;resizable=0;points=[];autosize=1;strokeColor=none;fillColor=none;" vertex="1" parent="1">
          <mxGeometry x="977" y="272" width="60" height="30" as="geometry" />
        </mxCell>
        <mxCell id="tw6_FEPcqnVQEfGkm1tB-129" value="First_Name" style="text;html=1;align=center;verticalAlign=middle;resizable=0;points=[];autosize=1;strokeColor=none;fillColor=none;" vertex="1" parent="1">
          <mxGeometry x="897" y="272" width="90" height="30" as="geometry" />
        </mxCell>
        <mxCell id="tw6_FEPcqnVQEfGkm1tB-130" value="" style="ellipse;whiteSpace=wrap;html=1;aspect=fixed;fillColor=#FFFFFF;" vertex="1" parent="1">
          <mxGeometry x="1140" y="198" width="14" height="14" as="geometry" />
        </mxCell>
        <mxCell id="tw6_FEPcqnVQEfGkm1tB-131" value="" style="ellipse;whiteSpace=wrap;html=1;aspect=fixed;fillColor=#FFFFFF;" vertex="1" parent="1">
          <mxGeometry x="1089" y="198" width="14" height="14" as="geometry" />
        </mxCell>
        <mxCell id="tw6_FEPcqnVQEfGkm1tB-132" value="" style="ellipse;whiteSpace=wrap;html=1;aspect=fixed;fillColor=#FFFFFF;" vertex="1" parent="1">
          <mxGeometry x="1183" y="198" width="14" height="14" as="geometry" />
        </mxCell>
        <mxCell id="tw6_FEPcqnVQEfGkm1tB-133" value="Birthdate" style="text;html=1;align=center;verticalAlign=middle;resizable=0;points=[];autosize=1;strokeColor=none;fillColor=none;" vertex="1" parent="1">
          <mxGeometry x="993" y="172" width="70" height="30" as="geometry" />
        </mxCell>
        <mxCell id="tw6_FEPcqnVQEfGkm1tB-134" value="Deathdate" style="text;html=1;align=center;verticalAlign=middle;resizable=0;points=[];autosize=1;strokeColor=none;fillColor=none;" vertex="1" parent="1">
          <mxGeometry x="1056" y="172" width="80" height="30" as="geometry" />
        </mxCell>
        <mxCell id="tw6_FEPcqnVQEfGkm1tB-135" value="SSN" style="text;html=1;align=center;verticalAlign=middle;resizable=0;points=[];autosize=1;strokeColor=none;fillColor=none;" vertex="1" parent="1">
          <mxGeometry x="1123" y="172" width="50" height="30" as="geometry" />
        </mxCell>
        <mxCell id="tw6_FEPcqnVQEfGkm1tB-136" value="Drivers" style="text;html=1;align=center;verticalAlign=middle;resizable=0;points=[];autosize=1;strokeColor=none;fillColor=none;" vertex="1" parent="1">
          <mxGeometry x="1163" y="170" width="60" height="30" as="geometry" />
        </mxCell>
        <mxCell id="tw6_FEPcqnVQEfGkm1tB-137" style="edgeStyle=orthogonalEdgeStyle;rounded=0;orthogonalLoop=1;jettySize=auto;html=1;exitX=1;exitY=0;exitDx=0;exitDy=0;entryX=0.5;entryY=1;entryDx=0;entryDy=0;curved=1;endArrow=none;startFill=0;" edge="1" parent="1" source="tw6_FEPcqnVQEfGkm1tB-121" target="tw6_FEPcqnVQEfGkm1tB-131">
          <mxGeometry relative="1" as="geometry">
            <mxPoint x="1063" y="222" as="targetPoint" />
            <mxPoint x="934" y="543" as="sourcePoint" />
            <Array as="points">
              <mxPoint x="925" y="532" />
              <mxPoint x="983" y="532" />
              <mxPoint x="983" y="382" />
              <mxPoint x="1093" y="382" />
              <mxPoint x="1093" y="212" />
            </Array>
          </mxGeometry>
        </mxCell>
        <mxCell id="tw6_FEPcqnVQEfGkm1tB-138" style="edgeStyle=orthogonalEdgeStyle;rounded=0;orthogonalLoop=1;jettySize=auto;html=1;exitX=1;exitY=0;exitDx=0;exitDy=0;entryX=0.5;entryY=1;entryDx=0;entryDy=0;curved=1;endArrow=none;startFill=0;" edge="1" parent="1" source="tw6_FEPcqnVQEfGkm1tB-121" target="tw6_FEPcqnVQEfGkm1tB-130">
          <mxGeometry relative="1" as="geometry">
            <mxPoint x="1166" y="229" as="targetPoint" />
            <mxPoint x="1037" y="550" as="sourcePoint" />
            <Array as="points">
              <mxPoint x="1086" y="534" />
              <mxPoint x="1086" y="389" />
              <mxPoint x="1143" y="389" />
              <mxPoint x="1143" y="212" />
            </Array>
          </mxGeometry>
        </mxCell>
        <mxCell id="tw6_FEPcqnVQEfGkm1tB-139" style="edgeStyle=orthogonalEdgeStyle;rounded=0;orthogonalLoop=1;jettySize=auto;html=1;exitX=0.947;exitY=0.277;exitDx=0;exitDy=0;entryX=0.5;entryY=1;entryDx=0;entryDy=0;curved=1;endArrow=none;startFill=0;exitPerimeter=0;" edge="1" parent="1" source="tw6_FEPcqnVQEfGkm1tB-121" target="tw6_FEPcqnVQEfGkm1tB-132">
          <mxGeometry relative="1" as="geometry">
            <mxPoint x="1157" y="222" as="targetPoint" />
            <mxPoint x="935" y="544" as="sourcePoint" />
            <Array as="points">
              <mxPoint x="926" y="532" />
              <mxPoint x="1093" y="532" />
              <mxPoint x="1093" y="399" />
              <mxPoint x="1153" y="399" />
              <mxPoint x="1153" y="222" />
              <mxPoint x="1190" y="222" />
            </Array>
          </mxGeometry>
        </mxCell>
        <mxCell id="tw6_FEPcqnVQEfGkm1tB-140" style="edgeStyle=orthogonalEdgeStyle;rounded=0;orthogonalLoop=1;jettySize=auto;html=1;exitX=0.5;exitY=1;exitDx=0;exitDy=0;entryX=0.234;entryY=0.075;entryDx=0;entryDy=0;endArrow=none;startFill=0;curved=1;entryPerimeter=0;" edge="1" parent="1" source="tw6_FEPcqnVQEfGkm1tB-141" target="tw6_FEPcqnVQEfGkm1tB-121">
          <mxGeometry relative="1" as="geometry">
            <Array as="points">
              <mxPoint x="852" y="434" />
              <mxPoint x="893" y="434" />
              <mxPoint x="893" y="522" />
              <mxPoint x="916" y="522" />
            </Array>
          </mxGeometry>
        </mxCell>
        <mxCell id="tw6_FEPcqnVQEfGkm1tB-141" value="" style="ellipse;whiteSpace=wrap;html=1;aspect=fixed;fillColor=#FFFFFF;" vertex="1" parent="1">
          <mxGeometry x="845" y="322" width="14" height="14" as="geometry" />
        </mxCell>
        <mxCell id="tw6_FEPcqnVQEfGkm1tB-142" style="edgeStyle=orthogonalEdgeStyle;rounded=0;orthogonalLoop=1;jettySize=auto;html=1;exitX=1;exitY=1;exitDx=0;exitDy=0;entryX=0;entryY=0;entryDx=0;entryDy=0;curved=1;endArrow=none;startFill=0;" edge="1" parent="1" source="tw6_FEPcqnVQEfGkm1tB-143" target="tw6_FEPcqnVQEfGkm1tB-121">
          <mxGeometry relative="1" as="geometry">
            <Array as="points">
              <mxPoint x="825" y="384" />
              <mxPoint x="853" y="384" />
              <mxPoint x="853" y="522" />
              <mxPoint x="915" y="522" />
            </Array>
          </mxGeometry>
        </mxCell>
        <mxCell id="tw6_FEPcqnVQEfGkm1tB-143" value="" style="ellipse;whiteSpace=wrap;html=1;aspect=fixed;fillColor=#FFFFFF;" vertex="1" parent="1">
          <mxGeometry x="813" y="344" width="14" height="14" as="geometry" />
        </mxCell>
        <mxCell id="tw6_FEPcqnVQEfGkm1tB-144" value="Passport" style="text;html=1;align=center;verticalAlign=middle;resizable=0;points=[];autosize=1;strokeColor=none;fillColor=none;" vertex="1" parent="1">
          <mxGeometry x="783" y="314" width="70" height="30" as="geometry" />
        </mxCell>
        <mxCell id="tw6_FEPcqnVQEfGkm1tB-145" value="Prefix" style="text;html=1;align=center;verticalAlign=middle;resizable=0;points=[];autosize=1;strokeColor=none;fillColor=none;" vertex="1" parent="1">
          <mxGeometry x="770" y="336" width="50" height="30" as="geometry" />
        </mxCell>
        <mxCell id="tw6_FEPcqnVQEfGkm1tB-146" style="edgeStyle=orthogonalEdgeStyle;rounded=0;orthogonalLoop=1;jettySize=auto;html=1;exitX=1;exitY=1;exitDx=0;exitDy=0;entryX=0;entryY=0;entryDx=0;entryDy=0;curved=1;endArrow=none;startFill=0;" edge="1" parent="1" source="tw6_FEPcqnVQEfGkm1tB-147" target="tw6_FEPcqnVQEfGkm1tB-121">
          <mxGeometry relative="1" as="geometry">
            <mxPoint x="913" y="532" as="targetPoint" />
            <Array as="points">
              <mxPoint x="833" y="394" />
              <mxPoint x="833" y="534" />
            </Array>
          </mxGeometry>
        </mxCell>
        <mxCell id="tw6_FEPcqnVQEfGkm1tB-147" value="" style="ellipse;whiteSpace=wrap;html=1;aspect=fixed;fillColor=#FFFFFF;" vertex="1" parent="1">
          <mxGeometry x="806" y="382" width="14" height="14" as="geometry" />
        </mxCell>
        <mxCell id="tw6_FEPcqnVQEfGkm1tB-148" value="Suffix" style="text;html=1;align=center;verticalAlign=middle;resizable=0;points=[];autosize=1;strokeColor=none;fillColor=none;" vertex="1" parent="1">
          <mxGeometry x="764" y="366" width="50" height="30" as="geometry" />
        </mxCell>
        <mxCell id="tw6_FEPcqnVQEfGkm1tB-149" value="" style="ellipse;whiteSpace=wrap;html=1;aspect=fixed;fillColor=#FFFFFF;" vertex="1" parent="1">
          <mxGeometry x="1153" y="432" width="14" height="14" as="geometry" />
        </mxCell>
        <mxCell id="tw6_FEPcqnVQEfGkm1tB-150" value="" style="ellipse;whiteSpace=wrap;html=1;aspect=fixed;fillColor=#FFFFFF;" vertex="1" parent="1">
          <mxGeometry x="1183" y="472" width="14" height="14" as="geometry" />
        </mxCell>
        <mxCell id="tw6_FEPcqnVQEfGkm1tB-151" value="" style="ellipse;whiteSpace=wrap;html=1;aspect=fixed;fillColor=#FFFFFF;" vertex="1" parent="1">
          <mxGeometry x="1183" y="518" width="14" height="14" as="geometry" />
        </mxCell>
        <mxCell id="tw6_FEPcqnVQEfGkm1tB-152" value="" style="ellipse;whiteSpace=wrap;html=1;aspect=fixed;fillColor=#FFFFFF;" vertex="1" parent="1">
          <mxGeometry x="1145" y="546" width="14" height="14" as="geometry" />
        </mxCell>
        <mxCell id="tw6_FEPcqnVQEfGkm1tB-153" value="Maiden" style="text;html=1;align=center;verticalAlign=middle;resizable=0;points=[];autosize=1;strokeColor=none;fillColor=none;" vertex="1" parent="1">
          <mxGeometry x="1143" y="406" width="60" height="30" as="geometry" />
        </mxCell>
        <mxCell id="tw6_FEPcqnVQEfGkm1tB-154" value="Marital" style="text;html=1;align=center;verticalAlign=middle;resizable=0;points=[];autosize=1;strokeColor=none;fillColor=none;" vertex="1" parent="1">
          <mxGeometry x="1187" y="456" width="60" height="30" as="geometry" />
        </mxCell>
        <mxCell id="tw6_FEPcqnVQEfGkm1tB-155" value="Birthplace" style="text;html=1;align=center;verticalAlign=middle;resizable=0;points=[];autosize=1;strokeColor=none;fillColor=none;" vertex="1" parent="1">
          <mxGeometry x="1153" y="493" width="80" height="30" as="geometry" />
        </mxCell>
        <mxCell id="tw6_FEPcqnVQEfGkm1tB-156" value="Address" style="text;html=1;align=center;verticalAlign=middle;resizable=0;points=[];autosize=1;strokeColor=none;fillColor=none;" vertex="1" parent="1">
          <mxGeometry x="1150" y="538" width="70" height="30" as="geometry" />
        </mxCell>
        <mxCell id="tw6_FEPcqnVQEfGkm1tB-157" value="Zip_Code" style="text;html=1;align=center;verticalAlign=middle;resizable=0;points=[];autosize=1;strokeColor=none;fillColor=none;" vertex="1" parent="1">
          <mxGeometry x="814" y="622" width="80" height="30" as="geometry" />
        </mxCell>
        <mxCell id="tw6_FEPcqnVQEfGkm1tB-158" value="Lat" style="text;html=1;align=center;verticalAlign=middle;resizable=0;points=[];autosize=1;strokeColor=none;fillColor=none;" vertex="1" parent="1">
          <mxGeometry x="874" y="622" width="40" height="30" as="geometry" />
        </mxCell>
        <mxCell id="tw6_FEPcqnVQEfGkm1tB-159" value="" style="ellipse;whiteSpace=wrap;html=1;aspect=fixed;fillColor=#FFFFFF;" vertex="1" parent="1">
          <mxGeometry x="845" y="612" width="14" height="14" as="geometry" />
        </mxCell>
        <mxCell id="tw6_FEPcqnVQEfGkm1tB-160" value="" style="ellipse;whiteSpace=wrap;html=1;aspect=fixed;fillColor=#FFFFFF;" vertex="1" parent="1">
          <mxGeometry x="886" y="612" width="14" height="14" as="geometry" />
        </mxCell>
        <mxCell id="tw6_FEPcqnVQEfGkm1tB-161" value="Lon" style="text;html=1;align=center;verticalAlign=middle;resizable=0;points=[];autosize=1;strokeColor=none;fillColor=none;" vertex="1" parent="1">
          <mxGeometry x="907" y="622" width="40" height="30" as="geometry" />
        </mxCell>
        <mxCell id="tw6_FEPcqnVQEfGkm1tB-162" value="" style="ellipse;whiteSpace=wrap;html=1;aspect=fixed;fillColor=#FFFFFF;" vertex="1" parent="1">
          <mxGeometry x="923" y="612" width="14" height="14" as="geometry" />
        </mxCell>
        <mxCell id="tw6_FEPcqnVQEfGkm1tB-163" value="" style="ellipse;whiteSpace=wrap;html=1;aspect=fixed;fillColor=#FFFFFF;" vertex="1" parent="1">
          <mxGeometry x="947" y="656" width="14" height="14" as="geometry" />
        </mxCell>
        <mxCell id="tw6_FEPcqnVQEfGkm1tB-164" value="" style="ellipse;whiteSpace=wrap;html=1;aspect=fixed;fillColor=#FFFFFF;" vertex="1" parent="1">
          <mxGeometry x="979" y="678" width="14" height="14" as="geometry" />
        </mxCell>
        <mxCell id="tw6_FEPcqnVQEfGkm1tB-165" value="Healthcare_expenses" style="text;html=1;align=center;verticalAlign=middle;resizable=0;points=[];autosize=1;strokeColor=none;fillColor=none;" vertex="1" parent="1">
          <mxGeometry x="818" y="648" width="140" height="30" as="geometry" />
        </mxCell>
        <mxCell id="tw6_FEPcqnVQEfGkm1tB-166" value="Healthcare_coverage" style="text;html=1;align=center;verticalAlign=middle;resizable=0;points=[];autosize=1;strokeColor=none;fillColor=none;" vertex="1" parent="1">
          <mxGeometry x="847" y="670" width="140" height="30" as="geometry" />
        </mxCell>
        <mxCell id="tw6_FEPcqnVQEfGkm1tB-167" style="edgeStyle=orthogonalEdgeStyle;rounded=0;orthogonalLoop=1;jettySize=auto;html=1;exitX=1;exitY=0.5;exitDx=0;exitDy=0;entryX=0;entryY=0.5;entryDx=0;entryDy=0;endArrow=none;startFill=0;" edge="1" parent="1" source="tw6_FEPcqnVQEfGkm1tB-168" target="tw6_FEPcqnVQEfGkm1tB-169">
          <mxGeometry relative="1" as="geometry" />
        </mxCell>
        <mxCell id="tw6_FEPcqnVQEfGkm1tB-168" value="" style="ellipse;whiteSpace=wrap;html=1;aspect=fixed;fillColor=#FFFFFF;" vertex="1" parent="1">
          <mxGeometry x="1163" y="592" width="14" height="14" as="geometry" />
        </mxCell>
        <mxCell id="tw6_FEPcqnVQEfGkm1tB-169" value="" style="ellipse;whiteSpace=wrap;html=1;aspect=fixed;fillColor=#FFFFFF;" vertex="1" parent="1">
          <mxGeometry x="1233" y="592" width="14" height="14" as="geometry" />
        </mxCell>
        <mxCell id="tw6_FEPcqnVQEfGkm1tB-170" style="edgeStyle=orthogonalEdgeStyle;rounded=0;orthogonalLoop=1;jettySize=auto;html=1;exitX=1;exitY=0.5;exitDx=0;exitDy=0;entryX=0;entryY=0.5;entryDx=0;entryDy=0;endArrow=none;startFill=0;" edge="1" parent="1" source="tw6_FEPcqnVQEfGkm1tB-171" target="tw6_FEPcqnVQEfGkm1tB-172">
          <mxGeometry relative="1" as="geometry" />
        </mxCell>
        <mxCell id="tw6_FEPcqnVQEfGkm1tB-171" value="" style="ellipse;whiteSpace=wrap;html=1;aspect=fixed;fillColor=#FFFFFF;" vertex="1" parent="1">
          <mxGeometry x="1163" y="642" width="14" height="14" as="geometry" />
        </mxCell>
        <mxCell id="tw6_FEPcqnVQEfGkm1tB-172" value="" style="ellipse;whiteSpace=wrap;html=1;aspect=fixed;fillColor=#FFFFFF;" vertex="1" parent="1">
          <mxGeometry x="1233" y="642" width="14" height="14" as="geometry" />
        </mxCell>
        <mxCell id="tw6_FEPcqnVQEfGkm1tB-173" value="Id_Race" style="text;html=1;align=center;verticalAlign=middle;resizable=0;points=[];autosize=1;strokeColor=none;fillColor=none;" vertex="1" parent="1">
          <mxGeometry x="1140" y="568" width="70" height="30" as="geometry" />
        </mxCell>
        <mxCell id="tw6_FEPcqnVQEfGkm1tB-174" value="Name" style="text;html=1;align=center;verticalAlign=middle;resizable=0;points=[];autosize=1;strokeColor=none;fillColor=none;" vertex="1" parent="1">
          <mxGeometry x="1215" y="568" width="60" height="30" as="geometry" />
        </mxCell>
        <mxCell id="tw6_FEPcqnVQEfGkm1tB-175" value="Id_Ethnicity" style="text;html=1;align=center;verticalAlign=middle;resizable=0;points=[];autosize=1;strokeColor=none;fillColor=none;" vertex="1" parent="1">
          <mxGeometry x="1128" y="610" width="90" height="30" as="geometry" />
        </mxCell>
        <mxCell id="tw6_FEPcqnVQEfGkm1tB-176" value="Name" style="text;html=1;align=center;verticalAlign=middle;resizable=0;points=[];autosize=1;strokeColor=none;fillColor=none;" vertex="1" parent="1">
          <mxGeometry x="1215" y="610" width="60" height="30" as="geometry" />
        </mxCell>
        <mxCell id="tw6_FEPcqnVQEfGkm1tB-177" style="edgeStyle=orthogonalEdgeStyle;rounded=0;orthogonalLoop=1;jettySize=auto;html=1;exitX=0.5;exitY=1;exitDx=0;exitDy=0;entryX=0.5;entryY=0;entryDx=0;entryDy=0;endArrow=none;startFill=0;" edge="1" parent="1" source="tw6_FEPcqnVQEfGkm1tB-178" target="tw6_FEPcqnVQEfGkm1tB-14">
          <mxGeometry relative="1" as="geometry" />
        </mxCell>
        <mxCell id="tw6_FEPcqnVQEfGkm1tB-178" value="" style="ellipse;whiteSpace=wrap;html=1;aspect=fixed;fillColor=#FFFFFF;" vertex="1" parent="1">
          <mxGeometry x="383" y="660" width="14" height="14" as="geometry" />
        </mxCell>
        <mxCell id="tw6_FEPcqnVQEfGkm1tB-179" value="Base_Cost" style="text;html=1;align=center;verticalAlign=middle;resizable=0;points=[];autosize=1;strokeColor=none;fillColor=none;" vertex="1" parent="1">
          <mxGeometry x="340" y="630" width="80" height="30" as="geometry" />
        </mxCell>
        <mxCell id="tw6_FEPcqnVQEfGkm1tB-199" style="edgeStyle=orthogonalEdgeStyle;rounded=0;orthogonalLoop=1;jettySize=auto;html=1;exitX=0;exitY=0;exitDx=0;exitDy=0;entryX=1;entryY=1;entryDx=0;entryDy=0;endArrow=none;startFill=0;curved=1;" edge="1" parent="1" source="tw6_FEPcqnVQEfGkm1tB-188" target="tw6_FEPcqnVQEfGkm1tB-9">
          <mxGeometry relative="1" as="geometry" />
        </mxCell>
        <mxCell id="tw6_FEPcqnVQEfGkm1tB-188" value="" style="ellipse;whiteSpace=wrap;html=1;aspect=fixed;fillColor=#FFFFFF;" vertex="1" parent="1">
          <mxGeometry x="709.5" y="786" width="16" height="16" as="geometry" />
        </mxCell>
        <mxCell id="tw6_FEPcqnVQEfGkm1tB-189" value="Stop" style="text;html=1;align=center;verticalAlign=middle;resizable=0;points=[];autosize=1;strokeColor=none;fillColor=none;" vertex="1" parent="1">
          <mxGeometry x="693.5" y="794" width="50" height="30" as="geometry" />
        </mxCell>
        <mxCell id="tw6_FEPcqnVQEfGkm1tB-200" style="edgeStyle=orthogonalEdgeStyle;rounded=0;orthogonalLoop=1;jettySize=auto;html=1;exitX=0.5;exitY=0;exitDx=0;exitDy=0;entryX=0.672;entryY=0.969;entryDx=0;entryDy=0;entryPerimeter=0;endArrow=none;startFill=0;curved=1;" edge="1" parent="1" source="tw6_FEPcqnVQEfGkm1tB-190" target="tw6_FEPcqnVQEfGkm1tB-9">
          <mxGeometry relative="1" as="geometry" />
        </mxCell>
        <mxCell id="tw6_FEPcqnVQEfGkm1tB-190" value="" style="ellipse;whiteSpace=wrap;html=1;aspect=fixed;fillColor=#FFFFFF;" vertex="1" parent="1">
          <mxGeometry x="691.5" y="840" width="16" height="16" as="geometry" />
        </mxCell>
        <mxCell id="tw6_FEPcqnVQEfGkm1tB-191" value="Start" style="text;html=1;align=center;verticalAlign=middle;resizable=0;points=[];autosize=1;strokeColor=none;fillColor=none;" vertex="1" parent="1">
          <mxGeometry x="675.5" y="848" width="50" height="30" as="geometry" />
        </mxCell>
        <mxCell id="tw6_FEPcqnVQEfGkm1tB-196" style="edgeStyle=orthogonalEdgeStyle;rounded=0;orthogonalLoop=1;jettySize=auto;html=1;exitX=1;exitY=0;exitDx=0;exitDy=0;entryX=0.058;entryY=0.697;entryDx=0;entryDy=0;entryPerimeter=0;endArrow=none;startFill=0;curved=1;" edge="1" parent="1" source="tw6_FEPcqnVQEfGkm1tB-192" target="tw6_FEPcqnVQEfGkm1tB-9">
          <mxGeometry relative="1" as="geometry" />
        </mxCell>
        <mxCell id="tw6_FEPcqnVQEfGkm1tB-192" value="" style="ellipse;whiteSpace=wrap;html=1;aspect=fixed;fillColor=#FFFFFF;" vertex="1" parent="1">
          <mxGeometry x="586.5" y="780" width="16" height="16" as="geometry" />
        </mxCell>
        <mxCell id="tw6_FEPcqnVQEfGkm1tB-193" value="&lt;p style=&quot;margin: 0px; font-variant-numeric: normal; font-variant-east-asian: normal; font-variant-alternates: normal; font-size-adjust: none; font-kerning: auto; font-optical-sizing: auto; font-feature-settings: normal; font-variation-settings: normal; font-variant-position: normal; font-variant-emoji: normal; font-stretch: normal; line-height: normal; text-align: start; text-wrap-mode: wrap;&quot; class=&quot;p1&quot;&gt;Total_Claim_Cost&lt;/p&gt;" style="text;html=1;align=center;verticalAlign=middle;resizable=0;points=[];autosize=1;strokeColor=none;fillColor=none;" vertex="1" parent="1">
          <mxGeometry x="530.5" y="794" width="120" height="30" as="geometry" />
        </mxCell>
        <mxCell id="tw6_FEPcqnVQEfGkm1tB-198" style="edgeStyle=orthogonalEdgeStyle;rounded=0;orthogonalLoop=1;jettySize=auto;html=1;exitX=1;exitY=0.5;exitDx=0;exitDy=0;entryX=0;entryY=1;entryDx=0;entryDy=0;endArrow=none;startFill=0;curved=1;" edge="1" parent="1" source="tw6_FEPcqnVQEfGkm1tB-194" target="tw6_FEPcqnVQEfGkm1tB-9">
          <mxGeometry relative="1" as="geometry" />
        </mxCell>
        <mxCell id="tw6_FEPcqnVQEfGkm1tB-194" value="" style="ellipse;whiteSpace=wrap;html=1;aspect=fixed;fillColor=#FFFFFF;" vertex="1" parent="1">
          <mxGeometry x="585.5" y="840" width="16" height="16" as="geometry" />
        </mxCell>
        <mxCell id="tw6_FEPcqnVQEfGkm1tB-195" value="Payer_Coverage" style="text;html=1;align=center;verticalAlign=middle;resizable=0;points=[];autosize=1;strokeColor=none;fillColor=none;" vertex="1" parent="1">
          <mxGeometry x="542.5" y="856" width="110" height="30" as="geometry" />
        </mxCell>
      </root>
    </mxGraphModel>
  </diagram>
</mxfile>
